<svg width="338" height="306" viewBox="0 0 338 306" fill="none" xmlns="http://www.w3.org/2000/svg">
<path d="M35.2499 221.289L67.1049 48.066H145.953L150.876 108.996C151.157 111.178 151.433 114.787 151.701 119.823C152.14 124.858 152.503 130.314 152.788 136.188C153.243 142.063 153.605 147.518 153.874 152.554H155.922C157.454 148.861 159.281 144.497 161.402 139.461C163.724 134.258 166.062 128.971 168.415 123.599C170.768 118.228 172.858 113.36 174.684 108.996L202.017 48.066H278.049L246.194 221.289H192.178L203.661 158.848C204.895 152.134 206.161 145.252 207.457 138.203C208.955 130.985 210.291 124.187 211.464 117.809C212.807 111.43 213.865 106.143 214.637 101.947H212.589C211.459 105.304 209.966 109.248 208.108 113.78C206.422 118.312 204.65 122.844 202.792 127.376C200.966 131.74 199.232 135.601 197.59 138.958L159.666 221.289H117.426L109.526 138.958C109.29 135.601 108.976 131.74 108.584 127.376C108.394 122.844 108.288 118.312 108.268 113.78C108.248 109.248 108.19 105.388 108.094 102.198H106.046C105.445 106.395 104.644 111.682 103.641 118.06C102.639 124.439 101.49 131.153 100.193 138.203C99.0675 145.252 97.8872 152.134 96.6525 158.848L85.1699 221.289H35.2499Z" fill="#17407C"/>
<path d="M48.3561 237.026L80.2111 63.8021H159.059L163.982 124.732C164.264 126.915 164.539 130.523 164.807 135.559C165.247 140.594 165.609 146.05 165.894 151.924C166.349 157.799 166.712 163.255 166.98 168.29H169.028C170.561 164.597 172.387 160.233 174.508 155.198C176.83 149.994 179.168 144.707 181.521 139.336C183.874 133.964 185.964 129.097 187.79 124.732L215.123 63.8021H291.155L259.3 237.026H205.284L216.767 174.585C218.001 167.87 219.267 160.989 220.563 153.939C222.061 146.721 223.397 139.923 224.57 133.545C225.913 127.166 226.971 121.879 227.743 117.683H225.695C224.565 121.04 223.072 124.984 221.215 129.516C219.528 134.048 217.756 138.58 215.898 143.112C214.072 147.476 212.338 151.337 210.697 154.694L172.772 237.026H130.532L122.633 154.694C122.397 151.337 122.082 147.476 121.69 143.112C121.5 138.58 121.395 134.048 121.375 129.516C121.355 124.984 121.297 121.124 121.2 117.934H119.152C118.551 122.131 117.75 127.418 116.747 133.796C115.745 140.175 114.596 146.889 113.299 153.939C112.174 160.989 110.993 167.87 109.759 174.585L98.2762 237.026H48.3561Z" fill="#9A19E8"/>
<path d="M61.4623 252.762L93.3173 79.5383H172.165L177.089 140.469C177.37 142.651 177.645 146.26 177.914 151.295C178.353 156.331 178.715 161.786 179 167.661C179.456 173.535 179.818 178.991 180.086 184.026H182.134C183.667 180.333 185.493 175.969 187.614 170.934C189.936 165.73 192.274 160.443 194.627 155.072C196.98 149.7 199.07 144.833 200.897 140.469L228.229 79.5383H304.261L272.406 252.762H218.39L229.873 190.321C231.108 183.607 232.373 176.725 233.67 169.675C235.168 162.457 236.503 155.659 237.676 149.281C239.02 142.902 240.077 137.615 240.849 133.419H238.801C237.672 136.776 236.178 140.72 234.321 145.252C232.634 149.784 230.862 154.316 229.005 158.848C227.178 163.213 225.444 167.073 223.803 170.43L185.878 252.762H143.638L135.739 170.43C135.503 167.073 135.189 163.213 134.797 158.848C134.606 154.316 134.501 149.784 134.481 145.252C134.461 140.72 134.403 136.86 134.307 133.671H132.259C131.658 137.867 130.856 143.154 129.854 149.533C128.851 155.911 127.702 162.625 126.406 169.675C125.28 176.725 124.1 183.607 122.865 190.321L111.382 252.762H61.4623Z" fill="#ED0180"/>
</svg>
