<svg width="80" height="80" viewBox="0 0 80 80" fill="none" xmlns="http://www.w3.org/2000/svg">
<g id="Group 1">
<path id="M 3" d="M1.792 56L9.536 11.968H31.296L33.28 27.776C33.408 28.5013 33.5147 29.4613 33.6 30.656C33.728 31.8507 33.856 33.1093 33.984 34.432C34.112 35.712 34.1973 36.864 34.24 37.888H34.688C35.1147 36.9067 35.5627 35.8613 36.032 34.752C36.544 33.6 37.0773 32.4267 37.632 31.232C38.1867 30.0373 38.72 28.8853 39.232 27.776L46.848 11.968H69.12L61.376 56H46.656L49.792 38.4C50.048 37.0773 50.304 35.648 50.56 34.112C50.8587 32.576 51.1573 31.104 51.456 29.696C51.7973 28.2453 52.096 26.9867 52.352 25.92H51.904C51.5627 26.6453 51.1573 27.52 50.688 28.544C50.2187 29.568 49.7493 30.5707 49.28 31.552C48.8107 32.5333 48.4053 33.3867 48.064 34.112L37.248 56H24.576L21.76 34.176C21.5467 32.64 21.3333 31.1467 21.12 29.696C20.9067 28.2027 20.7573 26.9653 20.672 25.984H20.224C20.1813 27.008 20.0747 28.224 19.904 29.632C19.776 31.04 19.6053 32.512 19.392 34.048C19.2213 35.5413 19.008 36.992 18.752 38.4L15.68 56H1.792Z" fill="#17407C"/>
<path id="M 2" d="M6.792 61L14.536 16.968H36.296L38.28 32.776C38.408 33.5013 38.5147 34.4613 38.6 35.656C38.728 36.8507 38.856 38.1093 38.984 39.432C39.112 40.712 39.1973 41.864 39.24 42.888H39.688C40.1147 41.9067 40.5627 40.8613 41.032 39.752C41.544 38.6 42.0773 37.4267 42.632 36.232C43.1867 35.0373 43.72 33.8853 44.232 32.776L51.848 16.968H74.12L66.376 61H51.656L54.792 43.4C55.048 42.0773 55.304 40.648 55.56 39.112C55.8587 37.576 56.1573 36.104 56.456 34.696C56.7973 33.2453 57.096 31.9867 57.352 30.92H56.904C56.5627 31.6453 56.1573 32.52 55.688 33.544C55.2187 34.568 54.7493 35.5707 54.28 36.552C53.8107 37.5333 53.4053 38.3867 53.064 39.112L42.248 61H29.576L26.76 39.176C26.5467 37.64 26.3333 36.1467 26.12 34.696C25.9067 33.2027 25.7573 31.9653 25.672 30.984H25.224C25.1813 32.008 25.0747 33.224 24.904 34.632C24.776 36.04 24.6053 37.512 24.392 39.048C24.2213 40.5413 24.008 41.992 23.752 43.4L20.68 61H6.792Z" fill="#9A19E8"/>
<path id="M 1" d="M11.792 66L19.536 21.968H41.296L43.28 37.776C43.408 38.5013 43.5147 39.4613 43.6 40.656C43.728 41.8507 43.856 43.1093 43.984 44.432C44.112 45.712 44.1973 46.864 44.24 47.888H44.688C45.1147 46.9067 45.5627 45.8613 46.032 44.752C46.544 43.6 47.0773 42.4267 47.632 41.232C48.1867 40.0373 48.72 38.8853 49.232 37.776L56.848 21.968H79.12L71.376 66H56.656L59.792 48.4C60.048 47.0773 60.304 45.648 60.56 44.112C60.8587 42.576 61.1573 41.104 61.456 39.696C61.7973 38.2453 62.096 36.9867 62.352 35.92H61.904C61.5627 36.6453 61.1573 37.52 60.688 38.544C60.2187 39.568 59.7493 40.5707 59.28 41.552C58.8107 42.5333 58.4053 43.3867 58.064 44.112L47.248 66H34.576L31.76 44.176C31.5467 42.64 31.3333 41.1467 31.12 39.696C30.9067 38.2027 30.7573 36.9653 30.672 35.984H30.224C30.1813 37.008 30.0747 38.224 29.904 39.632C29.776 41.04 29.6053 42.512 29.392 44.048C29.2213 45.5413 29.008 46.992 28.752 48.4L25.68 66H11.792Z" fill="#ED0180"/>
</g>
</svg>
